<svg width="766" height="207" viewBox="0 0 766 207" fill="none" xmlns="http://www.w3.org/2000/svg">
<path d="M231.69 164.22C220.65 164.22 210.607 161.92 201.56 157.32C192.667 152.72 185.613 146.05 180.4 137.31C175.187 128.57 172.58 117.99 172.58 105.57V102.35C172.58 89.93 175.187 79.35 180.4 70.61C185.613 61.87 192.667 55.2 201.56 50.6C210.607 46 220.65 43.7 231.69 43.7C242.577 43.7 251.93 45.6167 259.75 49.45C267.57 53.2833 273.857 58.5733 278.61 65.32C283.517 71.9133 286.737 79.4267 288.27 87.86L260.21 93.84C259.597 89.24 258.217 85.1 256.07 81.42C253.923 77.74 250.857 74.8267 246.87 72.68C243.037 70.5333 238.207 69.46 232.38 69.46C226.553 69.46 221.263 70.7633 216.51 73.37C211.91 75.8233 208.23 79.58 205.47 84.64C202.863 89.5467 201.56 95.6033 201.56 102.81V105.11C201.56 112.317 202.863 118.45 205.47 123.51C208.23 128.417 211.91 132.173 216.51 134.78C221.263 137.233 226.553 138.46 232.38 138.46C241.12 138.46 247.713 136.237 252.16 131.79C256.76 127.19 259.673 121.21 260.9 113.85L288.96 120.52C286.967 128.647 283.517 136.083 278.61 142.83C273.857 149.423 267.57 154.637 259.75 158.47C251.93 162.303 242.577 164.22 231.69 164.22Z" fill="black"/>
<path d="M312.866 161V46.92H341.386V59.34H345.526C347.519 55.5067 350.816 52.21 355.416 49.45C360.016 46.5367 366.072 45.08 373.586 45.08C381.712 45.08 388.229 46.69 393.136 49.91C398.042 52.9767 401.799 57.04 404.406 62.1H408.546C411.152 57.1933 414.832 53.13 419.586 49.91C424.339 46.69 431.086 45.08 439.826 45.08C446.879 45.08 453.242 46.6133 458.916 49.68C464.742 52.5933 469.342 57.1167 472.716 63.25C476.242 69.23 478.006 76.82 478.006 86.02V161H449.026V88.09C449.026 81.8033 447.416 77.1267 444.196 74.06C440.976 70.84 436.452 69.23 430.626 69.23C424.032 69.23 418.896 71.3767 415.216 75.67C411.689 79.81 409.926 85.79 409.926 93.61V161H380.946V88.09C380.946 81.8033 379.336 77.1267 376.116 74.06C372.896 70.84 368.372 69.23 362.546 69.23C355.952 69.23 350.816 71.3767 347.136 75.67C343.609 79.81 341.846 85.79 341.846 93.61V161H312.866Z" fill="black"/>
<path d="M555.174 164.22C546.128 164.22 537.618 161.997 529.644 157.55C521.824 152.95 515.538 146.28 510.784 137.54C506.031 128.8 503.654 118.22 503.654 105.8V102.12C503.654 89.7 506.031 79.12 510.784 70.38C515.538 61.64 521.824 55.0467 529.644 50.6C537.464 46 545.974 43.7 555.174 43.7C562.074 43.7 567.824 44.5433 572.424 46.23C577.178 47.7633 581.011 49.7567 583.924 52.21C586.838 54.6633 589.061 57.27 590.594 60.03H594.734V0H623.714V161H595.194V147.2H591.054C588.448 151.493 584.384 155.403 578.864 158.93C573.498 162.457 565.601 164.22 555.174 164.22ZM563.914 138.92C572.808 138.92 580.244 136.083 586.224 130.41C592.204 124.583 595.194 116.15 595.194 105.11V102.81C595.194 91.77 592.204 83.4133 586.224 77.74C580.398 71.9133 572.961 69 563.914 69C555.021 69 547.584 71.9133 541.604 77.74C535.624 83.4133 532.634 91.77 532.634 102.81V105.11C532.634 116.15 535.624 124.583 541.604 130.41C547.584 136.083 555.021 138.92 563.914 138.92Z" fill="black"/>
<path d="M668.264 207V181.7H730.364C734.658 181.7 736.804 179.4 736.804 174.8V146.05H732.664C731.438 148.657 729.521 151.263 726.914 153.87C724.308 156.477 720.781 158.623 716.334 160.31C711.888 161.997 706.214 162.84 699.314 162.84C690.421 162.84 682.601 160.847 675.854 156.86C669.261 152.72 664.124 147.047 660.444 139.84C656.764 132.633 654.924 124.353 654.924 115V46.92H683.904V112.7C683.904 121.287 685.974 127.727 690.114 132.02C694.408 136.313 700.464 138.46 708.284 138.46C717.178 138.46 724.078 135.547 728.984 129.72C733.891 123.74 736.344 115.46 736.344 104.88V46.92H765.324V181.24C765.324 189.06 763.024 195.27 758.424 199.87C753.824 204.623 747.691 207 740.024 207H668.264Z" fill="black"/>
<path d="M57 0H0.5L78 88.2878L0 177H58L137 88.2878L57 0Z" fill="#00B750"/>
</svg>
